<?xml version="1.0" standalone="no"?>
<!DOCTYPE svg PUBLIC "-//W3C//DTD SVG 20010904//EN"
 "http://www.w3.org/TR/2001/REC-SVG-20010904/DTD/svg10.dtd">
<svg version="1.0" xmlns="http://www.w3.org/2000/svg"
 width="512.000000pt" height="512.000000pt" viewBox="0 0 512.000000 512.000000"
 preserveAspectRatio="xMidYMid meet">
<metadata>
Created by potrace 1.16, written by Peter Selinger 2001-2019
</metadata>
<g transform="translate(0.000000,512.000000) scale(0.100000,-0.100000)"
fill="#000000" stroke="none">
<path d="M1695 4521 c-135 -63 -165 -233 -59 -333 104 -97 264 -64 325 67 76
163 -103 342 -266 266z"/>
<path d="M1019 4042 c-34 -28 -30 -75 9 -115 18 -18 32 -37 32 -43 0 -5 -13
-22 -29 -37 -41 -38 -47 -64 -24 -96 31 -41 73 -40 121 3 l39 35 33 -34 c57
-58 130 -40 130 31 0 21 -10 40 -35 64 l-34 33 34 39 c24 25 35 48 35 68 0 33
-30 70 -57 70 -20 0 -93 -48 -93 -61 0 -18 -24 -8 -61 26 -44 39 -67 43 -100
17z"/>
<path d="M2142 3850 c-136 -19 -299 -91 -409 -180 -208 -169 -325 -457 -293
-722 52 -434 421 -747 855 -725 377 19 685 286 761 660 20 96 15 267 -10 362
-9 33 -38 106 -66 161 -103 209 -297 366 -527 424 -89 23 -226 32 -311 20z
m319 -163 c290 -98 473 -351 471 -652 -1 -120 -18 -191 -74 -305 -58 -120
-178 -240 -298 -298 -113 -56 -183 -72 -305 -72 -120 0 -202 18 -298 65 -249
121 -402 383 -384 655 12 176 74 309 206 441 97 96 181 144 311 179 106 29
264 23 371 -13z"/>
<path d="M2273 3628 c-11 -13 -112 -160 -223 -328 -216 -324 -226 -345 -181
-382 20 -15 41 -18 137 -18 l114 0 0 -181 c0 -99 4 -189 10 -199 12 -23 53
-33 82 -20 30 14 448 707 448 744 0 14 -9 35 -20 46 -18 18 -33 20 -135 20
l-115 0 0 150 c0 137 -2 152 -20 170 -27 27 -71 26 -97 -2z m-17 -396 c7 -44
49 -62 139 -61 36 1 68 0 70 -2 2 -2 -45 -84 -103 -182 l-107 -177 -3 94 c-3
89 -4 96 -29 116 -21 16 -40 20 -104 20 l-79 0 102 154 103 154 3 -41 c1 -23
5 -57 8 -75z"/>
<path d="M3706 3048 c-50 -71 43 -159 104 -98 26 26 26 81 2 103 -28 25 -87
22 -106 -5z"/>
<path d="M4277 2554 c-71 -75 -212 -178 -310 -225 l-47 -23 -30 32 c-37 40
-63 41 -126 0 -206 -133 -504 -283 -718 -362 -120 -45 -332 -104 -403 -113
-51 -6 -53 -5 -53 19 0 14 -9 33 -21 44 -20 18 -51 19 -999 19 -948 0 -979 -1
-999 -19 -29 -26 -28 -80 1 -100 20 -14 127 -16 955 -16 l933 0 0 -340 0 -340
-929 0 c-924 0 -928 0 -955 -21 -32 -25 -35 -70 -6 -99 20 -20 33 -20 998 -20
1095 0 1022 -5 1022 71 0 21 4 39 9 39 5 0 87 -22 182 -49 309 -88 584 -190
783 -291 65 -33 131 -60 147 -60 19 0 35 10 52 31 l24 31 116 -46 c121 -48
361 -119 440 -131 41 -6 49 -4 71 18 14 15 26 35 26 45 0 41 -32 60 -155 91
-116 29 -260 75 -376 121 -56 22 -56 22 -46 51 20 53 1 78 -98 131 -125 66
-349 160 -545 229 l-165 58 428 0 428 1 24 25 c16 15 25 35 25 56 l0 32 98 -7
c121 -9 256 -36 347 -71 39 -15 82 -29 97 -32 55 -11 93 76 49 114 -64 54
-288 112 -463 120 l-128 6 0 28 c0 16 -9 38 -20 49 -19 19 -33 20 -367 20
-191 0 -343 4 -337 8 5 5 41 21 79 37 162 66 431 208 602 317 74 48 93 65 98
90 4 17 2 35 -4 41 -20 20 -11 33 45 60 170 83 384 272 384 339 0 26 -44 68
-71 68 -14 0 -46 -27 -92 -76z m-438 -409 c-57 -53 -478 -269 -669 -343 -124
-48 -310 -105 -395 -122 -86 -16 -179 -10 -183 13 -4 20 -10 18 148 52 292 63
656 213 975 403 l99 59 19 -24 c17 -21 18 -27 6 -38z m-19 -640 l0 -35 -615 0
-615 0 0 28 c0 16 3 32 7 35 3 4 280 7 615 7 l608 0 0 -35z m-970 -260 c213
-62 374 -116 545 -185 129 -51 315 -140 315 -149 0 -3 -9 -17 -19 -29 l-18
-24 -69 35 c-188 95 -499 208 -824 300 l-185 53 -3 33 -3 33 38 -7 c21 -4 121
-31 223 -60z"/>
</g>
</svg>
