<?xml version="1.0" standalone="no"?>
<!DOCTYPE svg PUBLIC "-//W3C//DTD SVG 20010904//EN"
 "http://www.w3.org/TR/2001/REC-SVG-20010904/DTD/svg10.dtd">
<svg version="1.0" xmlns="http://www.w3.org/2000/svg"
 width="512.000000pt" height="512.000000pt" viewBox="0 0 512.000000 512.000000"
 preserveAspectRatio="xMidYMid meet">
<metadata>
Created by potrace 1.16, written by Peter Selinger 2001-2019
</metadata>
<g transform="translate(0.000000,512.000000) scale(0.100000,-0.100000)"
fill="#000000" stroke="none">
<path d="M2270 5110 c-407 -57 -732 -223 -1005 -512 -255 -272 -414 -648 -432
-1024 l-6 -121 -69 -16 c-306 -74 -579 -320 -694 -626 -106 -282 -75 -606 82
-870 40 -68 66 -91 102 -91 28 0 72 42 72 69 0 12 -22 59 -48 105 -89 155
-129 319 -119 486 8 120 29 202 78 308 122 265 362 447 648 491 98 16 97 13
104 214 7 190 24 294 77 447 127 370 396 676 745 846 130 63 222 95 365 125
139 30 408 33 545 6 290 -57 535 -180 747 -374 46 -42 65 -53 91 -53 38 0 62
21 72 62 6 23 -1 35 -47 84 -87 92 -249 207 -393 278 -239 118 -427 165 -690
171 -88 2 -189 0 -225 -5z"/>
<path d="M3734 4409 c-24 -8 -54 -46 -54 -67 0 -8 24 -57 54 -110 68 -120 120
-248 151 -372 16 -61 32 -101 44 -111 12 -9 50 -20 88 -24 100 -10 240 -48
326 -88 125 -58 216 -123 322 -231 114 -116 179 -217 232 -358 56 -148 67
-214 67 -388 -1 -135 -4 -168 -27 -255 -52 -196 -182 -410 -324 -532 -227
-196 -460 -272 -828 -273 l-90 0 3 391 3 392 -27 54 c-17 36 -43 67 -75 91
-26 20 -48 39 -48 42 0 3 22 21 48 42 31 23 58 55 75 89 l26 53 0 380 c0 437
2 425 -89 509 -104 97 -316 173 -606 219 -122 19 -180 22 -445 22 -265 0 -323
-3 -445 -22 -290 -46 -502 -122 -606 -219 -91 -84 -89 -72 -89 -509 l0 -380
26 -53 c17 -34 44 -66 75 -89 26 -21 48 -39 48 -42 0 -3 -22 -22 -48 -42 -32
-24 -58 -55 -75 -91 l-27 -54 3 -392 3 -391 -195 0 c-355 1 -487 26 -659 125
-43 25 -84 45 -92 45 -22 0 -59 -29 -68 -54 -20 -54 29 -100 180 -170 167 -77
298 -95 702 -96 l267 0 70 -35 70 -35 0 -145 0 -145 -54 0 c-47 0 -57 -4 -75
-26 -14 -18 -21 -41 -21 -70 l0 -44 -734 0 c-484 0 -744 -4 -762 -10 -55 -21
-71 -78 -34 -118 l21 -22 754 0 755 0 0 -49 c0 -34 6 -56 21 -75 l20 -26 185
0 c242 0 224 -17 224 218 0 212 -1 214 -87 222 l-58 5 -3 118 c-1 64 1 117 5
117 5 0 24 -5 43 -10 34 -10 219 -43 313 -55 l47 -6 0 -396 0 -395 -86 -84
-85 -84 -820 0 -819 0 0 50 c0 41 -5 56 -25 75 -24 25 -27 25 -200 25 -238 0
-225 13 -225 -225 0 -238 -13 -225 225 -225 173 0 176 0 200 25 20 19 25 34
25 75 l0 50 852 0 851 0 114 113 c63 61 121 124 129 139 11 22 14 103 14 438
l0 410 150 0 149 0 3 -425 3 -426 126 -124 126 -125 851 0 852 0 0 -50 c0 -41
5 -56 25 -75 24 -25 27 -25 200 -25 238 0 225 -13 225 225 0 238 13 225 -225
225 -173 0 -176 0 -200 -25 -20 -19 -25 -34 -25 -75 l0 -50 -818 0 -817 0 -88
85 -87 85 0 395 c0 217 3 395 8 395 29 0 280 42 329 54 34 9 64 16 67 16 4 0
5 -53 4 -117 l-3 -118 -58 -5 c-86 -8 -87 -10 -87 -222 0 -235 -18 -218 224
-218 l185 0 20 26 c15 19 21 41 21 75 l0 49 755 0 754 0 21 22 c37 40 21 97
-34 118 -18 6 -278 10 -762 10 l-734 0 0 44 c0 29 -7 52 -21 70 -18 22 -28 26
-75 26 l-54 0 0 145 0 145 70 35 70 35 157 0 c306 0 480 26 648 95 593 244
894 904 689 1513 -130 389 -453 684 -862 788 -52 13 -108 24 -124 24 -16 0
-30 6 -32 13 -58 198 -112 327 -192 459 -36 60 -72 82 -110 67z m-854 -684
c312 -33 567 -114 644 -206 32 -37 32 -48 5 -83 -65 -83 -283 -160 -569 -203
-146 -22 -625 -25 -770 -5 -293 41 -524 120 -594 203 -32 38 -32 50 0 88 75
90 330 173 634 206 159 18 487 18 650 0z m-1247 -501 c119 -61 339 -118 557
-146 140 -17 601 -17 740 0 222 28 432 83 552 143 32 16 60 29 63 29 3 0 5
-106 5 -235 0 -267 1 -263 -78 -314 -94 -59 -243 -106 -447 -141 -132 -23
-158 -37 -158 -89 0 -17 8 -40 19 -52 17 -20 26 -21 96 -16 81 7 278 47 350
73 40 14 44 13 96 -12 64 -31 122 -86 122 -116 0 -31 -61 -83 -143 -122 -226
-108 -629 -161 -1043 -137 -229 14 -249 11 -260 -34 -10 -42 4 -75 39 -90 18
-7 112 -19 212 -25 427 -29 886 35 1127 156 l68 34 0 -239 0 -239 -26 -31
c-68 -81 -268 -153 -544 -196 -144 -22 -519 -31 -690 -16 -329 29 -613 116
-694 212 l-26 31 0 239 0 239 62 -31 c73 -37 162 -69 191 -69 32 0 67 39 67
75 0 42 -19 57 -116 94 -97 37 -185 97 -198 133 -7 20 -5 32 12 54 24 35 123
96 154 96 13 0 75 -13 138 -30 147 -38 292 -59 514 -73 171 -11 178 -11 204 8
35 26 42 83 14 111 -16 16 -46 20 -208 30 -349 22 -613 82 -756 173 -79 51
-78 47 -78 314 0 129 2 235 5 235 3 0 29 -12 58 -26z m217 -2354 l0 -70 -75 0
-75 0 0 70 0 70 75 0 75 0 0 -70z m1570 0 l0 -70 -75 0 -75 0 0 70 0 70 75 0
75 0 0 -70z m-3120 -645 l0 -75 -75 0 -75 0 0 75 0 75 75 0 75 0 0 -75z m4670
0 l0 -75 -75 0 -75 0 0 75 0 75 75 0 75 0 0 -75z"/>
<path d="M2126 2877 c-33 -33 -34 -76 -3 -105 31 -29 72 -28 102 3 45 44 22
109 -42 121 -26 5 -37 1 -57 -19z"/>
<path d="M2896 2879 c-69 -54 6 -160 85 -118 48 25 44 105 -7 128 -35 16 -48
14 -78 -10z"/>
<path d="M2507 2852 c-23 -25 -22 -85 1 -105 25 -23 85 -22 105 1 23 25 22 85
-1 105 -25 23 -85 22 -105 -1z"/>
<path d="M2122 1747 c-58 -62 11 -152 87 -112 64 33 43 127 -30 133 -26 2 -40
-3 -57 -21z"/>
<path d="M2890 1750 c-28 -28 -26 -75 5 -105 27 -28 42 -30 79 -14 33 15 50
57 37 92 -19 48 -85 63 -121 27z"/>
<path d="M2516 1729 c-52 -41 -23 -129 44 -129 40 0 70 31 70 73 0 38 -7 50
-37 66 -31 16 -47 14 -77 -10z"/>
</g>
</svg>
