<?xml version="1.0" standalone="no"?>
<!DOCTYPE svg PUBLIC "-//W3C//DTD SVG 20010904//EN"
 "http://www.w3.org/TR/2001/REC-SVG-20010904/DTD/svg10.dtd">
<svg version="1.0" xmlns="http://www.w3.org/2000/svg"
 width="512.000000pt" height="512.000000pt" viewBox="0 0 512.000000 512.000000"
 preserveAspectRatio="xMidYMid meet">
<metadata>
Created by potrace 1.16, written by Peter Selinger 2001-2019
</metadata>
<g transform="translate(0.000000,512.000000) scale(0.100000,-0.100000)"
fill="#000000" stroke="none">
<path d="M320 4947 c-49 -16 -133 -102 -148 -153 -17 -58 -17 -890 0 -948 16
-55 99 -138 154 -154 26 -7 108 -12 218 -12 l176 0 0 -89 0 -89 -30 -12 c-42
-17 -104 -90 -118 -138 -7 -22 -12 -90 -12 -151 0 -105 1 -113 25 -136 l24
-25 431 0 431 0 24 25 c24 23 25 31 25 136 0 61 -5 129 -12 151 -14 48 -76
121 -118 138 l-30 12 0 89 0 89 178 0 c216 0 251 9 315 80 24 26 49 66 55 88
17 55 17 889 0 944 -6 22 -31 62 -55 88 -75 83 -41 80 -817 79 -466 -1 -692
-5 -716 -12z m1415 -172 l25 -24 0 -296 0 -295 -720 0 -720 0 0 295 0 296 25
24 24 25 671 0 671 0 24 -25z m25 -830 c0 -46 -4 -60 -25 -80 l-24 -25 -671 0
-671 0 -24 25 c-21 20 -25 34 -25 80 l0 55 720 0 720 0 0 -55z m-560 -345 l0
-80 -160 0 -160 0 0 80 0 80 160 0 160 0 0 -80z m135 -265 c21 -20 25 -34 25
-80 l0 -55 -320 0 -320 0 0 55 c0 46 4 60 25 80 l24 25 271 0 271 0 24 -25z"/>
<path d="M3360 4947 c-49 -16 -133 -102 -148 -153 -9 -30 -12 -164 -12 -474 0
-310 3 -444 12 -474 16 -55 99 -138 154 -154 26 -7 108 -12 218 -12 l176 0 0
-89 0 -89 -30 -12 c-42 -17 -104 -90 -118 -138 -7 -22 -12 -90 -12 -151 0
-105 1 -113 25 -136 l24 -25 431 0 431 0 24 25 c24 23 25 31 25 136 0 61 -5
129 -12 151 -14 48 -76 121 -118 138 l-30 12 0 89 0 89 178 0 c216 0 251 9
315 80 24 26 49 66 55 88 17 55 17 889 0 944 -6 22 -31 62 -55 88 -75 83 -41
80 -817 79 -466 -1 -692 -5 -716 -12z m1415 -172 l25 -24 0 -296 0 -295 -720
0 -720 0 0 295 0 296 25 24 24 25 671 0 671 0 24 -25z m25 -830 c0 -46 -4 -60
-25 -80 l-24 -25 -671 0 -671 0 -24 25 c-21 20 -25 34 -25 80 l0 55 720 0 720
0 0 -55z m-560 -345 l0 -80 -160 0 -160 0 0 80 0 80 160 0 160 0 0 -80z m135
-265 c21 -20 25 -34 25 -80 l0 -55 -320 0 -320 0 0 55 c0 46 4 60 25 80 l24
25 271 0 271 0 24 -25z"/>
<path d="M2080 4240 l0 -80 200 0 200 0 0 -600 0 -600 80 0 80 0 0 600 0 600
200 0 200 0 0 80 0 80 -480 0 -480 0 0 -80z"/>
<path d="M960 2560 l0 -320 80 0 80 0 0 120 0 120 520 0 520 0 0 80 0 80 -520
0 -520 0 0 120 0 120 -80 0 -80 0 0 -320z"/>
<path d="M4000 2760 l0 -120 -520 0 -520 0 0 -80 0 -80 520 0 520 0 0 -120 0
-120 80 0 80 0 0 320 0 320 -80 0 -80 0 0 -120z"/>
<path d="M2480 2787 c-49 -16 -133 -102 -148 -153 -28 -94 -8 -169 63 -239
101 -102 229 -102 330 0 78 77 95 166 51 261 -53 114 -176 169 -296 131z m135
-172 c50 -49 15 -135 -55 -135 -19 0 -40 9 -55 25 -50 49 -15 135 55 135 19 0
40 -9 55 -25z"/>
<path d="M2480 1560 l0 -600 -200 0 -200 0 0 -80 0 -80 480 0 480 0 0 80 0 80
-200 0 -200 0 0 600 0 600 -80 0 -80 0 0 -600z"/>
<path d="M320 2067 c-49 -16 -133 -102 -148 -153 -17 -58 -17 -890 0 -948 16
-55 99 -138 154 -154 26 -7 108 -12 218 -12 l176 0 0 -89 0 -89 -30 -12 c-42
-17 -104 -90 -118 -138 -7 -22 -12 -90 -12 -151 0 -105 1 -113 25 -136 l24
-25 431 0 431 0 24 25 c24 23 25 31 25 136 0 61 -5 129 -12 151 -14 48 -76
121 -118 138 l-30 12 0 89 0 89 178 0 c216 0 251 9 315 80 24 26 49 66 55 88
17 55 17 889 0 944 -6 22 -31 62 -55 88 -75 83 -41 80 -817 79 -466 -1 -692
-5 -716 -12z m1415 -172 l25 -24 0 -296 0 -295 -720 0 -720 0 0 295 0 296 25
24 24 25 671 0 671 0 24 -25z m25 -830 c0 -46 -4 -60 -25 -80 l-24 -25 -671 0
-671 0 -24 25 c-21 20 -25 34 -25 80 l0 55 720 0 720 0 0 -55z m-560 -345 l0
-80 -160 0 -160 0 0 80 0 80 160 0 160 0 0 -80z m135 -265 c21 -20 25 -34 25
-80 l0 -55 -320 0 -320 0 0 55 c0 46 4 60 25 80 l24 25 271 0 271 0 24 -25z"/>
<path d="M3360 2067 c-49 -16 -133 -102 -148 -153 -9 -30 -12 -164 -12 -474 0
-310 3 -444 12 -474 16 -55 99 -138 154 -154 26 -7 108 -12 218 -12 l176 0 0
-89 0 -89 -30 -12 c-42 -17 -104 -90 -118 -138 -7 -22 -12 -90 -12 -151 0
-105 1 -113 25 -136 l24 -25 431 0 431 0 24 25 c24 23 25 31 25 136 0 61 -5
129 -12 151 -14 48 -76 121 -118 138 l-30 12 0 89 0 89 178 0 c216 0 251 9
315 80 24 26 49 66 55 88 17 55 17 889 0 944 -6 22 -31 62 -55 88 -75 83 -41
80 -817 79 -466 -1 -692 -5 -716 -12z m1415 -172 l25 -24 0 -296 0 -295 -720
0 -720 0 0 295 0 296 25 24 24 25 671 0 671 0 24 -25z m25 -830 c0 -46 -4 -60
-25 -80 l-24 -25 -671 0 -671 0 -24 25 c-21 20 -25 34 -25 80 l0 55 720 0 720
0 0 -55z m-560 -345 l0 -80 -160 0 -160 0 0 80 0 80 160 0 160 0 0 -80z m135
-265 c21 -20 25 -34 25 -80 l0 -55 -320 0 -320 0 0 55 c0 46 4 60 25 80 l24
25 271 0 271 0 24 -25z"/>
</g>
</svg>
