<svg xmlns="http://www.w3.org/2000/svg" xmlns:xlink="http://www.w3.org/1999/xlink" width="317" height="52" viewBox="0 0 317 52"><defs><clipPath id="a"><path d="M13.954-3.031H12.36v-8.927q0-1.058.133-2.589h-.038a8.157,8.157,0,0,1-.41,1.29L7.369-3.031H6.586L1.919-13.183a7.749,7.749,0,0,1-.411-1.364H1.47q.076.8.076,2.608v8.909H0V-16.338H2.119l4.2,9.28a11.679,11.679,0,0,1,.63,1.6h.057q.41-1.094.659-1.633l4.286-9.243h2V-3.031" transform="translate(0 16.338)" fill="none" clip-rule="evenodd"/></clipPath><clipPath id="b"><path d="M19.1-3.109h1.565v-9.514H19.1Zm.8-11.93a1,1,0,0,1-.716-.279.928.928,0,0,1-.3-.706.942.942,0,0,1,.3-.71,1,1,0,0,1,.716-.284,1.023,1.023,0,0,1,.73.284.933.933,0,0,1,.3.71.927.927,0,0,1-.3.7,1.015,1.015,0,0,1-.73.288Z" transform="translate(-18.889 17.018)" fill="none" clip-rule="evenodd"/></clipPath><clipPath id="c"><path d="M30.569-2.617a5.092,5.092,0,0,1-2.673.677A4.426,4.426,0,0,1,24.522-3.3a4.93,4.93,0,0,1-1.283-3.527,5.42,5.42,0,0,1,1.384-3.88,4.841,4.841,0,0,1,3.694-1.465,5.145,5.145,0,0,1,2.271.477v1.6a3.983,3.983,0,0,0-2.329-.763A3.15,3.15,0,0,0,25.8-9.781a4.077,4.077,0,0,0-.959,2.821,3.88,3.88,0,0,0,.9,2.71,3.108,3.108,0,0,0,2.42.993,3.923,3.923,0,0,0,2.405-.85v1.489" transform="translate(-23.239 12.172)" fill="none" clip-rule="evenodd"/></clipPath><clipPath id="d"><path d="M38.816-10.351a1.916,1.916,0,0,0-1.184-.315,2,2,0,0,0-1.675.945,4.371,4.371,0,0,0-.673,2.577v4.982H33.719v-9.774h1.565v2.014h.038a3.414,3.414,0,0,1,1.021-1.609,2.329,2.329,0,0,1,1.537-.577,2.565,2.565,0,0,1,.935.133v1.623" transform="translate(-33.719 12.107)" fill="none" clip-rule="evenodd"/></clipPath><clipPath id="e"><path d="M44.739-10.854a2.977,2.977,0,0,0-2.386,1.026A4.21,4.21,0,0,0,41.475-7a3.985,3.985,0,0,0,.888,2.74,3.018,3.018,0,0,0,2.377,1,2.86,2.86,0,0,0,2.334-.983,4.266,4.266,0,0,0,.816-2.8,4.34,4.34,0,0,0-.816-2.825,2.848,2.848,0,0,0-2.334-.992Zm-.114,8.915a4.532,4.532,0,0,1-3.46-1.37,5.071,5.071,0,0,1-1.293-3.632,5.284,5.284,0,0,1,1.346-3.846,4.838,4.838,0,0,1,3.636-1.384,4.385,4.385,0,0,1,3.413,1.346,5.338,5.338,0,0,1,1.226,3.732,5.252,5.252,0,0,1-1.322,3.746,4.633,4.633,0,0,1-3.546,1.408Z" transform="translate(-39.872 12.172)" fill="none" clip-rule="evenodd"/></clipPath><clipPath id="f"><path d="M52.424-2.522V-4.2a4.629,4.629,0,0,0,2.816.945q2.062,0,2.062-1.374a1.188,1.188,0,0,0-.177-.664,1.765,1.765,0,0,0-.477-.482,3.673,3.673,0,0,0-.706-.377q-.405-.167-.873-.348a11.2,11.2,0,0,1-1.14-.52,3.438,3.438,0,0,1-.821-.592,2.194,2.194,0,0,1-.5-.749,2.65,2.65,0,0,1-.167-.983,2.339,2.339,0,0,1,.315-1.217,2.794,2.794,0,0,1,.84-.887,3.911,3.911,0,0,1,1.2-.54,5.336,5.336,0,0,1,1.389-.182,5.615,5.615,0,0,1,2.271.439v1.585a4.428,4.428,0,0,0-2.482-.706,2.9,2.9,0,0,0-.792.1,1.948,1.948,0,0,0-.606.282,1.308,1.308,0,0,0-.392.434,1.148,1.148,0,0,0-.138.559,1.343,1.343,0,0,0,.138.639,1.416,1.416,0,0,0,.406.458,3.111,3.111,0,0,0,.649.363q.382.162.869.353a12.071,12.071,0,0,1,1.164.511,4,4,0,0,1,.879.591,2.309,2.309,0,0,1,.558.759,2.449,2.449,0,0,1,.2,1.021,2.412,2.412,0,0,1-.32,1.26,2.739,2.739,0,0,1-.854.887,3.909,3.909,0,0,1-1.231.525,6.09,6.09,0,0,1-1.461.172,5.55,5.55,0,0,1-2.615-.582" transform="translate(-52.424 12.172)" fill="none" clip-rule="evenodd"/></clipPath><clipPath id="g"><path d="M66.1-10.854a2.977,2.977,0,0,0-2.386,1.026A4.213,4.213,0,0,0,62.836-7a3.985,3.985,0,0,0,.888,2.74,3.018,3.018,0,0,0,2.377,1,2.86,2.86,0,0,0,2.334-.983,4.263,4.263,0,0,0,.816-2.8,4.337,4.337,0,0,0-.816-2.825,2.848,2.848,0,0,0-2.334-.992Zm-.114,8.915a4.532,4.532,0,0,1-3.46-1.37,5.071,5.071,0,0,1-1.293-3.632,5.284,5.284,0,0,1,1.346-3.846,4.838,4.838,0,0,1,3.637-1.384,4.385,4.385,0,0,1,3.412,1.346,5.338,5.338,0,0,1,1.226,3.732,5.252,5.252,0,0,1-1.322,3.746,4.633,4.633,0,0,1-3.546,1.408Z" transform="translate(-61.232 12.172)" fill="none" clip-rule="evenodd"/></clipPath><clipPath id="h"><path d="M78.743-15.917a2.13,2.13,0,0,0-1.041-.251q-1.642,0-1.642,2.017v1.469h2.291v1.3H76.061v8.219H74.506V-11.38h-1.67v-1.3h1.67v-1.543a3.162,3.162,0,0,1,.887-2.367,3.039,3.039,0,0,1,2.215-.869,3.147,3.147,0,0,1,1.136.167v1.376" transform="translate(-72.835 17.461)" fill="none" clip-rule="evenodd"/></clipPath><clipPath id="i"><path d="M85.267-2.983a3.1,3.1,0,0,1-1.461.3q-2.568,0-2.567-2.779V-11.08h-1.68v-1.3h1.68v-2.316l1.565-.491v2.807h2.463v1.3H82.8v5.345a2.163,2.163,0,0,0,.334,1.362,1.353,1.353,0,0,0,1.107.408,1.681,1.681,0,0,0,1.022-.315v1.3" transform="translate(-79.559 15.183)" fill="none" clip-rule="evenodd"/></clipPath><clipPath id="j"><path d="M100.335-8.162l-2.147-5.67a5.288,5.288,0,0,1-.21-.891h-.038a4.858,4.858,0,0,1-.22.891l-2.128,5.67Zm3.751,5.131h-1.775l-1.451-3.73h-5.8l-1.365,3.73H91.907l5.25-13.307h1.661l5.269,13.307Z" transform="translate(-91.907 16.338)" fill="none" clip-rule="evenodd"/></clipPath><clipPath id="k"><path d="M113.883-11.464,108.1-3.475h5.727v1.336H105.8v-.487l5.784-7.951h-5.24v-1.336h7.54v.449" transform="translate(-105.798 11.912)" fill="none" clip-rule="evenodd"/></clipPath><clipPath id="l"><path d="M124.619-2.139h-1.565V-3.685h-.038A3.214,3.214,0,0,1,120-1.909q-3.493,0-3.493-4.161v-5.841h1.555v5.593q0,3.093,2.367,3.093a2.4,2.4,0,0,0,1.885-.845,3.232,3.232,0,0,0,.74-2.21v-5.631h1.565v9.774" transform="translate(-116.506 11.912)" fill="none" clip-rule="evenodd"/></clipPath><clipPath id="m"><path d="M133.864-10.351a1.917,1.917,0,0,0-1.184-.315,2,2,0,0,0-1.675.945,4.371,4.371,0,0,0-.672,2.577v4.982h-1.565v-9.774h1.565v2.014h.038a3.415,3.415,0,0,1,1.022-1.609,2.329,2.329,0,0,1,1.537-.577,2.567,2.567,0,0,1,.935.133v1.623" transform="translate(-128.768 12.107)" fill="none" clip-rule="evenodd"/></clipPath><clipPath id="n"><path d="M141.839-7.991a3.185,3.185,0,0,0-.654-2.109,2.227,2.227,0,0,0-1.789-.754,2.53,2.53,0,0,0-1.881.792,3.6,3.6,0,0,0-.954,2.071Zm1.6,1.327h-6.9a3.654,3.654,0,0,0,.878,2.52,3.027,3.027,0,0,0,2.31.888,4.8,4.8,0,0,0,3.035-1.088v1.47a5.672,5.672,0,0,1-3.408.935A4.129,4.129,0,0,1,136.1-3.271a5.447,5.447,0,0,1-1.184-3.746,5.346,5.346,0,0,1,1.293-3.718,4.147,4.147,0,0,1,3.211-1.437,3.675,3.675,0,0,1,2.969,1.241,5.172,5.172,0,0,1,1.05,3.445v.821Z" transform="translate(-134.919 12.172)" fill="none" clip-rule="evenodd"/></clipPath><clipPath id="p"><rect width="317" height="52"/></clipPath></defs><g id="o" clip-path="url(#p)"><path d="M-8.281,253.207v-.014a2.485,2.485,0,0,1,.726-1.8,2.485,2.485,0,0,1,1.8-.729,2.62,2.62,0,0,1,1.942.774l-.385.405a2.186,2.186,0,0,0-1.566-.67,1.933,1.933,0,0,0-1.389.591,1.933,1.933,0,0,0-.541,1.409v.015a1.945,1.945,0,0,0,.538,1.416,1.945,1.945,0,0,0,1.391.6,2.185,2.185,0,0,0,1.609-.7l.37.355a2.614,2.614,0,0,1-1.993.859,2.459,2.459,0,0,1-1.782-.724,2.459,2.459,0,0,1-.716-1.786Zm-1.6,2.512-3.429-4.143v4.143H-13.9v-5.052h.562l3.345,4.049v-4.049H-9.4v5.053Zm-7.654,0v-2l-1.974-3.052h.65l1.6,2.527,1.617-2.527h.624l-1.975,3.045v2.007ZM-24,254.933l.367-.407a2.583,2.583,0,0,0,1.8.693c.7,0,1.169-.351,1.169-.835v-.013c0-.457-.262-.717-1.363-.933-1.2-.244-1.759-.609-1.759-1.417v-.014c0-.771.725-1.341,1.721-1.341a2.859,2.859,0,0,1,1.842.6l-.345.429a2.388,2.388,0,0,0-1.511-.533c-.681,0-1.115.351-1.115.794v.015c0,.463.267.721,1.421.953s1.707.639,1.707,1.389v.014c0,.842-.748,1.389-1.789,1.389A3.187,3.187,0,0,1-24,254.933ZM-7.157,248.7v-3.369h1.333a1.82,1.82,0,0,1,2.037,1.674v.01A1.825,1.825,0,0,1-5.824,248.7Zm.433-.351h.9a1.41,1.41,0,0,0,1.083-.315,1.41,1.41,0,0,0,.506-1.008v-.01a1.417,1.417,0,0,0-.5-1.012,1.417,1.417,0,0,0-1.084-.321h-.9Zm-3.24.351v-3.369h.375v3.018h1.87v.351Zm-1.593,0-.985-1.308h-.969V248.7h-.383v-3.369h1.459a1.339,1.339,0,0,1,.965.337.926.926,0,0,1,.261.667v.009a.989.989,0,0,1-.924.979l1.043,1.376Zm-1.953-1.65h1.041c.509,0,.873-.26.873-.693v-.009c0-.413-.321-.667-.867-.667H-13.51Zm-4.875-.024v-.01a1.661,1.661,0,0,1,.487-1.2,1.661,1.661,0,0,1,1.2-.485,1.645,1.645,0,0,1,1.2.48,1.645,1.645,0,0,1,.483,1.194s0,0,0,.009a1.661,1.661,0,0,1-.488,1.2,1.661,1.661,0,0,1-1.2.485,1.645,1.645,0,0,1-1.2-.48,1.645,1.645,0,0,1-.483-1.194Zm.387-.02v.009a1.3,1.3,0,0,0,.365.948,1.3,1.3,0,0,0,.935.4,1.287,1.287,0,0,0,.929-.392,1.287,1.287,0,0,0,.361-.942v-.01a1.3,1.3,0,0,0-.366-.947,1.3,1.3,0,0,0-.934-.4,1.285,1.285,0,0,0-.931.39,1.285,1.285,0,0,0-.362.942Zm-2.522,1.694L-21.474,246l-.957,2.706h-.328L-24,245.343h.427l.993,2.779.952-2.788h.323l.953,2.788.993-2.779h.412l-1.241,3.359Zm19.277-5.579v-.86l-.4.609h-.018l-.393-.609v.86h-.16V242h.17l.4.616.393-.616h.166v1.123Zm-1.733,0v-.97h-.357V242h.873v.153h-.357v.969Z" transform="translate(36 -213.333)" fill="#919195"/><path d="M16,16v4H12V16ZM8,12v4H4V12ZM20,8v4H16V8ZM4,4V8H0V4Zm8-4V4H8V0Zm8,0V4H16V0Z" transform="translate(12 10)" fill="#c1d72f"/><path d="M20,14v4H16V14ZM4,10v4H0V10ZM16,6v4H12V6Z" transform="translate(12 8)" fill="#008a5e"/><path d="M4,16v4H0V16Zm16,0v4H16V16Zm-4-4v4H12V12ZM8,4,6,6V8H4V4ZM4,0V4H0V0ZM16,0V4H12V0Z" transform="translate(12 10)" fill="#00b259"/><path d="M8,16v4H4V16ZM4,12v4H0V12ZM8,8v4H4V8Zm8,0v4H12V8Zm4-4V8H16V4ZM8,0V4H4V0Z" transform="translate(12 10)" fill="#7ac143"/><path d="M11.278-7.562H8.79a2.462,2.462,0,0,0-.278-.861,2.195,2.195,0,0,0-.54-.645,2.381,2.381,0,0,0-.759-.409,2.938,2.938,0,0,0-.929-.142,2.775,2.775,0,0,0-1.574.446,2.888,2.888,0,0,0-1.04,1.3A5.154,5.154,0,0,0,3.3-5.818a5.2,5.2,0,0,0,.372,2.091A2.816,2.816,0,0,0,4.716-2.449a2.8,2.8,0,0,0,1.551.432,3.1,3.1,0,0,0,.918-.131,2.376,2.376,0,0,0,.753-.384,2.2,2.2,0,0,0,.548-.616,2.449,2.449,0,0,0,.3-.83l2.489.011a4.51,4.51,0,0,1-.48,1.543A4.66,4.66,0,0,1,9.77-1.1a4.814,4.814,0,0,1-1.534.92A5.619,5.619,0,0,1,6.227.159a5.475,5.475,0,0,1-2.781-.7,4.977,4.977,0,0,1-1.932-2.04A6.828,6.828,0,0,1,.807-5.818a6.774,6.774,0,0,1,.716-3.239,5.008,5.008,0,0,1,1.943-2.037,5.463,5.463,0,0,1,2.761-.7,5.994,5.994,0,0,1,1.878.284,4.79,4.79,0,0,1,1.537.827,4.336,4.336,0,0,1,1.094,1.327A4.97,4.97,0,0,1,11.278-7.562ZM16.831.17a4.438,4.438,0,0,1-2.287-.565,3.821,3.821,0,0,1-1.486-1.58,5.071,5.071,0,0,1-.523-2.355A5.1,5.1,0,0,1,13.058-6.7a3.821,3.821,0,0,1,1.486-1.58,4.438,4.438,0,0,1,2.287-.565,4.438,4.438,0,0,1,2.287.565A3.821,3.821,0,0,1,20.6-6.7a5.1,5.1,0,0,1,.523,2.366A5.071,5.071,0,0,1,20.6-1.974a3.821,3.821,0,0,1-1.486,1.58A4.438,4.438,0,0,1,16.831.17ZM16.843-1.7a1.5,1.5,0,0,0,1.006-.344,2.114,2.114,0,0,0,.611-.94,4.124,4.124,0,0,0,.207-1.358A4.124,4.124,0,0,0,18.459-5.7a2.135,2.135,0,0,0-.611-.943,1.489,1.489,0,0,0-1.006-.347,1.53,1.53,0,0,0-1.02.347A2.1,2.1,0,0,0,15.2-5.7,4.124,4.124,0,0,0,15-4.347,4.124,4.124,0,0,0,15.2-2.989a2.08,2.08,0,0,0,.619.94A1.538,1.538,0,0,0,16.843-1.7Zm8.172-3.341V0h-2.42V-8.727H24.9v1.54H25a2.45,2.45,0,0,1,.972-1.207,2.954,2.954,0,0,1,1.653-.446,3.069,3.069,0,0,1,1.585.4A2.707,2.707,0,0,1,30.265-7.31a3.817,3.817,0,0,1,.375,1.753V0h-2.42V-5.125a1.763,1.763,0,0,0-.409-1.253,1.473,1.473,0,0,0-1.142-.452,1.72,1.72,0,0,0-.861.21,1.446,1.446,0,0,0-.58.611A2.12,2.12,0,0,0,25.015-5.045ZM37.073-8.727v1.818H31.817V-8.727Zm-4.062-2.091h2.42v8.136a1.086,1.086,0,0,0,.1.52.56.56,0,0,0,.287.259,1.15,1.15,0,0,0,.429.074,1.887,1.887,0,0,0,.341-.031l.261-.048.381,1.8q-.182.057-.511.134a4.274,4.274,0,0,1-.8.094,3.659,3.659,0,0,1-1.531-.233,2.139,2.139,0,0,1-1.02-.83,2.536,2.536,0,0,1-.358-1.42ZM42.421.17a4.627,4.627,0,0,1-2.315-.548,3.709,3.709,0,0,1-1.491-1.557,5.128,5.128,0,0,1-.523-2.389,5.1,5.1,0,0,1,.523-2.364,3.858,3.858,0,0,1,1.474-1.585,4.279,4.279,0,0,1,2.236-.568,4.619,4.619,0,0,1,1.611.276,3.631,3.631,0,0,1,1.307.827,3.766,3.766,0,0,1,.872,1.384,5.526,5.526,0,0,1,.313,1.946v.665H39.058v-1.5h5.091a1.854,1.854,0,0,0-.227-.926,1.654,1.654,0,0,0-.628-.634,1.832,1.832,0,0,0-.929-.23,1.863,1.863,0,0,0-.974.253,1.813,1.813,0,0,0-.662.676,1.926,1.926,0,0,0-.244.94v1.426a2.427,2.427,0,0,0,.241,1.119,1.728,1.728,0,0,0,.685.727,2.068,2.068,0,0,0,1.051.256A2.289,2.289,0,0,0,43.2-1.75a1.533,1.533,0,0,0,.574-.341,1.482,1.482,0,0,0,.364-.557l2.239.148a3.052,3.052,0,0,1-.7,1.406,3.5,3.5,0,0,1-1.352.932A5.082,5.082,0,0,1,42.421.17Zm7.894-5.216V0h-2.42V-8.727H50.2v1.54h.1a2.45,2.45,0,0,1,.972-1.207,2.954,2.954,0,0,1,1.653-.446,3.069,3.069,0,0,1,1.585.4A2.707,2.707,0,0,1,55.565-7.31a3.817,3.817,0,0,1,.375,1.753V0H53.52V-5.125a1.763,1.763,0,0,0-.409-1.253,1.473,1.473,0,0,0-1.142-.452,1.72,1.72,0,0,0-.861.21,1.446,1.446,0,0,0-.58.611A2.12,2.12,0,0,0,50.315-5.045ZM62.373-8.727v1.818H57.118V-8.727Zm-4.062-2.091h2.42v8.136a1.086,1.086,0,0,0,.1.52.56.56,0,0,0,.287.259,1.15,1.15,0,0,0,.429.074,1.887,1.887,0,0,0,.341-.031l.261-.048.381,1.8q-.182.057-.511.134a4.274,4.274,0,0,1-.8.094,3.659,3.659,0,0,1-1.531-.233,2.139,2.139,0,0,1-1.02-.83,2.536,2.536,0,0,1-.358-1.42ZM74.148-7.562H71.659a2.462,2.462,0,0,0-.278-.861,2.195,2.195,0,0,0-.54-.645,2.381,2.381,0,0,0-.759-.409,2.939,2.939,0,0,0-.929-.142,2.775,2.775,0,0,0-1.574.446,2.888,2.888,0,0,0-1.04,1.3,5.154,5.154,0,0,0-.369,2.06,5.2,5.2,0,0,0,.372,2.091,2.816,2.816,0,0,0,1.043,1.278,2.8,2.8,0,0,0,1.551.432,3.1,3.1,0,0,0,.918-.131,2.376,2.376,0,0,0,.753-.384,2.2,2.2,0,0,0,.548-.616,2.449,2.449,0,0,0,.3-.83l2.489.011a4.51,4.51,0,0,1-.48,1.543A4.66,4.66,0,0,1,72.639-1.1a4.814,4.814,0,0,1-1.534.92A5.619,5.619,0,0,1,69.1.159a5.475,5.475,0,0,1-2.781-.7,4.977,4.977,0,0,1-1.932-2.04,6.828,6.828,0,0,1-.707-3.233,6.774,6.774,0,0,1,.716-3.239,5.008,5.008,0,0,1,1.943-2.037,5.463,5.463,0,0,1,2.761-.7,5.994,5.994,0,0,1,1.878.284,4.79,4.79,0,0,1,1.537.827,4.336,4.336,0,0,1,1.094,1.327A4.97,4.97,0,0,1,74.148-7.562Zm4.1,7.727a3.607,3.607,0,0,1-1.489-.293A2.353,2.353,0,0,1,75.726-1a2.575,2.575,0,0,1-.378-1.44,2.544,2.544,0,0,1,.267-1.222,2.162,2.162,0,0,1,.727-.8,3.523,3.523,0,0,1,1.048-.455,7.893,7.893,0,0,1,1.236-.216q.761-.08,1.227-.151a1.714,1.714,0,0,0,.676-.213.474.474,0,0,0,.21-.42v-.034a1.05,1.05,0,0,0-.338-.835,1.409,1.409,0,0,0-.957-.3,1.706,1.706,0,0,0-1.04.287,1.347,1.347,0,0,0-.511.719L75.655-6.25a3.062,3.062,0,0,1,.67-1.378,3.252,3.252,0,0,1,1.293-.9,4.949,4.949,0,0,1,1.838-.315,5.617,5.617,0,0,1,1.395.17,3.678,3.678,0,0,1,1.188.528,2.585,2.585,0,0,1,.821.918,2.787,2.787,0,0,1,.3,1.338V0h-2.3V-1.21H80.8a2.427,2.427,0,0,1-.562.719,2.537,2.537,0,0,1-.847.483A3.447,3.447,0,0,1,78.246.165Zm.693-1.67a2.013,2.013,0,0,0,.943-.213,1.649,1.649,0,0,0,.642-.577,1.494,1.494,0,0,0,.233-.824v-.926a1.238,1.238,0,0,1-.31.134q-.2.06-.44.108t-.489.085l-.443.065a2.994,2.994,0,0,0-.744.2,1.2,1.2,0,0,0-.494.366.912.912,0,0,0-.176.571.868.868,0,0,0,.361.753A1.537,1.537,0,0,0,78.939-1.506ZM92.191-6.239,89.975-6.1a1.165,1.165,0,0,0-.244-.514,1.341,1.341,0,0,0-.491-.369,1.729,1.729,0,0,0-.724-.139,1.79,1.79,0,0,0-.949.236.711.711,0,0,0-.386.628.672.672,0,0,0,.25.528,1.984,1.984,0,0,0,.858.347l1.58.318a3.916,3.916,0,0,1,1.9.841A1.979,1.979,0,0,1,92.39-2.7a2.386,2.386,0,0,1-.5,1.506A3.284,3.284,0,0,1,90.512-.19,5.22,5.22,0,0,1,88.5.17a4.7,4.7,0,0,1-2.759-.724,2.8,2.8,0,0,1-1.2-1.974l2.381-.125a1.213,1.213,0,0,0,.523.8,1.884,1.884,0,0,0,1.063.276,1.89,1.89,0,0,0,1.026-.247.75.75,0,0,0,.395-.639A.676.676,0,0,0,89.651-3a2.028,2.028,0,0,0-.841-.327l-1.511-.3a3.6,3.6,0,0,1-1.9-.886,2.194,2.194,0,0,1-.622-1.608,2.341,2.341,0,0,1,.457-1.449,2.9,2.9,0,0,1,1.29-.938,5.285,5.285,0,0,1,1.952-.33,4.318,4.318,0,0,1,2.605.7A2.7,2.7,0,0,1,92.191-6.239Zm6.257-2.489v1.818H93.192V-8.727Zm-4.062-2.091h2.42v8.136a1.085,1.085,0,0,0,.1.52A.56.56,0,0,0,97.2-1.9a1.15,1.15,0,0,0,.429.074,1.887,1.887,0,0,0,.341-.031l.261-.048.381,1.8q-.182.057-.511.134a4.274,4.274,0,0,1-.8.094,3.659,3.659,0,0,1-1.531-.233,2.139,2.139,0,0,1-1.02-.83,2.536,2.536,0,0,1-.358-1.42Z" transform="translate(44 36)"/><path d="M.719,0V-6.545H3.052a2.588,2.588,0,0,1,1.266.278,1.809,1.809,0,0,1,.751.759,2.316,2.316,0,0,1,.249,1.082,2.311,2.311,0,0,1-.251,1.085,1.827,1.827,0,0,1-.754.761,2.578,2.578,0,0,1-1.264.28h-1.6v-.837H2.96a1.6,1.6,0,0,0,.783-.168,1.035,1.035,0,0,0,.441-.459,1.5,1.5,0,0,0,.141-.662,1.48,1.48,0,0,0-.141-.658,1.01,1.01,0,0,0-.443-.451A1.671,1.671,0,0,0,2.947-5.7H1.707V0ZM8.4.1A2.254,2.254,0,0,1,7.2-.217,2.134,2.134,0,0,1,6.4-1.1a2.938,2.938,0,0,1-.284-1.33A2.966,2.966,0,0,1,6.4-3.768a2.129,2.129,0,0,1,.8-.888,2.254,2.254,0,0,1,1.2-.316,2.254,2.254,0,0,1,1.2.316,2.129,2.129,0,0,1,.8.888,2.966,2.966,0,0,1,.284,1.336,2.938,2.938,0,0,1-.284,1.33,2.134,2.134,0,0,1-.8.885A2.254,2.254,0,0,1,8.4.1Zm0-.8A1.145,1.145,0,0,0,9.147-.94a1.4,1.4,0,0,0,.436-.63,2.53,2.53,0,0,0,.142-.866A2.533,2.533,0,0,0,9.583-3.3a1.418,1.418,0,0,0-.436-.634,1.135,1.135,0,0,0-.741-.24,1.147,1.147,0,0,0-.746.24,1.412,1.412,0,0,0-.438.634,2.533,2.533,0,0,0-.142.865,2.53,2.53,0,0,0,.142.866,1.391,1.391,0,0,0,.438.63A1.157,1.157,0,0,0,8.406-.7Zm4.263.7L11.224-4.909h.988L13.174-1.3h.048l.965-3.605h.988l.959,3.589h.048l.956-3.589h.988L16.683,0h-.975l-1-3.544h-.074L13.641,0Zm8.326.1a2.393,2.393,0,0,1-1.248-.312,2.077,2.077,0,0,1-.805-.879,2.949,2.949,0,0,1-.283-1.331,2.977,2.977,0,0,1,.283-1.33,2.169,2.169,0,0,1,.793-.9,2.183,2.183,0,0,1,1.194-.323,2.4,2.4,0,0,1,.805.137,1.951,1.951,0,0,1,.7.431,2.029,2.029,0,0,1,.489.762A3.191,3.191,0,0,1,23.1-2.506v.339H19.2v-.716h2.966a1.42,1.42,0,0,0-.153-.67,1.166,1.166,0,0,0-.43-.462,1.214,1.214,0,0,0-.647-.169,1.247,1.247,0,0,0-.7.2,1.328,1.328,0,0,0-.46.511,1.474,1.474,0,0,0-.161.682v.559a1.842,1.842,0,0,0,.174.837,1.228,1.228,0,0,0,.487.526A1.44,1.44,0,0,0,21-.69a1.491,1.491,0,0,0,.5-.078A1.052,1.052,0,0,0,21.886-1a1.027,1.027,0,0,0,.249-.387l.9.163a1.634,1.634,0,0,1-.388.7,1.881,1.881,0,0,1-.7.463A2.609,2.609,0,0,1,20.995.1Zm3.17-.1V-4.909h.924v.78h.051a1.192,1.192,0,0,1,.475-.625,1.353,1.353,0,0,1,.772-.229q.089,0,.213.006t.193.016v.914a1.857,1.857,0,0,0-.2-.037,2.1,2.1,0,0,0-.294-.021,1.249,1.249,0,0,0-.6.142,1.081,1.081,0,0,0-.417.393,1.071,1.071,0,0,0-.153.57V0ZM29.56.1a2.393,2.393,0,0,1-1.248-.312,2.077,2.077,0,0,1-.805-.879,2.949,2.949,0,0,1-.283-1.331,2.977,2.977,0,0,1,.283-1.33,2.169,2.169,0,0,1,.793-.9,2.183,2.183,0,0,1,1.194-.323,2.4,2.4,0,0,1,.805.137A1.951,1.951,0,0,1,31-4.4a2.029,2.029,0,0,1,.489.762,3.191,3.191,0,0,1,.179,1.136v.339h-3.9v-.716H30.73a1.42,1.42,0,0,0-.153-.67,1.166,1.166,0,0,0-.43-.462,1.214,1.214,0,0,0-.647-.169,1.247,1.247,0,0,0-.7.2,1.328,1.328,0,0,0-.46.511,1.474,1.474,0,0,0-.161.682v.559a1.842,1.842,0,0,0,.174.837,1.228,1.228,0,0,0,.487.526,1.44,1.44,0,0,0,.732.181,1.491,1.491,0,0,0,.5-.078A1.052,1.052,0,0,0,30.452-1,1.027,1.027,0,0,0,30.7-1.39l.9.163a1.634,1.634,0,0,1-.388.7,1.881,1.881,0,0,1-.7.463A2.609,2.609,0,0,1,29.56.1Zm5.008,0a1.887,1.887,0,0,1-1.059-.305,2.042,2.042,0,0,1-.729-.873,3.214,3.214,0,0,1-.264-1.363,3.17,3.17,0,0,1,.267-1.362,2.027,2.027,0,0,1,.733-.866,1.912,1.912,0,0,1,1.058-.3,1.543,1.543,0,0,1,.737.152,1.35,1.35,0,0,1,.435.353,3.061,3.061,0,0,1,.241.355h.058V-6.545H37V0h-.933V-.764h-.08a2.593,2.593,0,0,1-.248.358,1.4,1.4,0,0,1-.443.352A1.543,1.543,0,0,1,34.568.1Zm.211-.815a1.115,1.115,0,0,0,.7-.219,1.349,1.349,0,0,0,.435-.609,2.541,2.541,0,0,0,.149-.908,2.493,2.493,0,0,0-.147-.895,1.315,1.315,0,0,0-.431-.6,1.136,1.136,0,0,0-.7-.214,1.136,1.136,0,0,0-.719.224,1.357,1.357,0,0,0-.433.61,2.465,2.465,0,0,0-.145.873,2.513,2.513,0,0,0,.147.885,1.392,1.392,0,0,0,.436.622A1.116,1.116,0,0,0,34.779-.719ZM40.823,0V-6.545h.956v2.432h.058a2.671,2.671,0,0,1,.24-.355,1.374,1.374,0,0,1,.435-.353,1.533,1.533,0,0,1,.735-.152,1.917,1.917,0,0,1,1.061.3,2.027,2.027,0,0,1,.733.866,3.17,3.17,0,0,1,.267,1.362,3.2,3.2,0,0,1-.265,1.363,2.057,2.057,0,0,1-.729.873A1.88,1.88,0,0,1,43.255.1a1.553,1.553,0,0,1-.73-.15,1.381,1.381,0,0,1-.443-.352,2.661,2.661,0,0,1-.246-.358h-.08V0Zm.936-2.455a2.517,2.517,0,0,0,.15.908,1.365,1.365,0,0,0,.435.609,1.108,1.108,0,0,0,.7.219,1.115,1.115,0,0,0,.716-.229,1.408,1.408,0,0,0,.436-.622,2.489,2.489,0,0,0,.149-.885,2.465,2.465,0,0,0-.145-.873,1.351,1.351,0,0,0-.435-.61,1.143,1.143,0,0,0-.721-.224,1.137,1.137,0,0,0-.7.214,1.31,1.31,0,0,0-.433.6A2.493,2.493,0,0,0,41.759-2.455Zm5.05,4.3a2.086,2.086,0,0,1-.39-.034,1.277,1.277,0,0,1-.262-.072l.23-.783a1.543,1.543,0,0,0,.467.061A.565.565,0,0,0,47.216.86,1.2,1.2,0,0,0,47.5.39l.118-.326-1.8-4.973h1.023L48.084-1.1h.051l1.243-3.81H50.4L48.381.655a2.243,2.243,0,0,1-.358.65,1.4,1.4,0,0,1-.518.4A1.694,1.694,0,0,1,46.809,1.841Z" transform="translate(45 20)" fill="rgba(0,0,0,0.6)"/><rect width="1" height="40" transform="translate(157 6)" fill="#989898"/><g transform="translate(10 1)"><g transform="translate(164 18)"><g transform="translate(0 0.999)" clip-path="url(#a)"><path d="M-5,.566H17.8v-21.9H-5Z" transform="translate(0.579 17.039)" fill="#0db7df"/></g><g transform="translate(16.286 0.363)" clip-path="url(#b)"><path d="M13.889.5H24.775V-22.018H13.889Z" transform="translate(-18.311 17.714)" fill="#0db7df"/></g><g transform="translate(19.9 4.268)" clip-path="url(#c)"><path d="M18.239,1.9H34.431V-17.172H18.239Z" transform="translate(-22.66 12.75)" fill="#0db7df"/></g><g transform="translate(28.916 4.359)" clip-path="url(#d)"><path d="M28.719,1.681H42.659V-17.107H28.719Z" transform="translate(-33.141 12.685)" fill="#0db7df"/></g><g transform="translate(34.367 4.268)" clip-path="url(#e)"><path d="M34.872,1.9H53.335V-17.172H34.872Z" transform="translate(-39.293 12.75)" fill="#0db7df"/></g><g transform="translate(45.228 4.268)" clip-path="url(#f)"><path d="M47.424,1.9H62.748V-17.172H47.424Z" transform="translate(-51.846 12.75)" fill="#0db7df"/></g><g transform="translate(52.455 4.268)" clip-path="url(#g)"><path d="M56.232,1.9H74.7V-17.172H56.232Z" transform="translate(-60.654 12.75)" fill="#0db7df"/></g><g transform="translate(62.397)" clip-path="url(#h)"><path d="M67.835.453H82.586V-22.461H67.835Z" transform="translate(-72.256 18.154)" fill="#0db7df"/></g><g transform="translate(67.846 1.998)" clip-path="url(#i)"><path d="M74.559.895H89.11V-20.183H74.559Z" transform="translate(-78.98 15.892)" fill="#0db7df"/></g></g><g transform="translate(244 19)"><g clip-path="url(#j)"><path d="M86.907.566h21.021v-21.9H86.907Z" transform="translate(-91.328 17.039)" fill="#0db7df"/></g><g transform="translate(13.167 3.541)" clip-path="url(#k)"><path d="M100.8,1.7h16.927V-16.912H100.8Z" transform="translate(-105.22 12.491)" fill="#0db7df"/></g><g transform="translate(22.702 3.541)" clip-path="url(#l)"><path d="M111.506,1.933h16.955V-16.912H111.506Z" transform="translate(-115.927 12.491)" fill="#0db7df"/></g><g transform="translate(32.691 3.36)" clip-path="url(#m)"><path d="M123.768,1.681h13.939V-17.107H123.768Z" transform="translate(-128.189 12.685)" fill="#0db7df"/></g><g transform="translate(38.139 3.269)" clip-path="url(#n)"><path d="M129.919,1.9h17.366V-17.172H129.919Z" transform="translate(-134.34 12.75)" fill="#0db7df"/></g></g></g></g></svg>