<?xml version="1.0" standalone="no"?>
<!DOCTYPE svg PUBLIC "-//W3C//DTD SVG 20010904//EN"
 "http://www.w3.org/TR/2001/REC-SVG-20010904/DTD/svg10.dtd">
<svg version="1.0" xmlns="http://www.w3.org/2000/svg"
 width="512.000000pt" height="512.000000pt" viewBox="0 0 512.000000 512.000000"
 preserveAspectRatio="xMidYMid meet">
<metadata>
Created by potrace 1.16, written by Peter Selinger 2001-2019
</metadata>
<g transform="translate(0.000000,512.000000) scale(0.100000,-0.100000)"
fill="#000000" stroke="none">
<path d="M1880 5114 c-25 -2 -103 -9 -175 -14 -475 -40 -855 -155 -1019 -309
-66 -62 -86 -118 -86 -242 l0 -106 -67 -12 c-129 -24 -236 -96 -300 -202 -67
-111 -63 -16 -63 -1690 l0 -1516 -35 -6 c-50 -8 -94 -43 -116 -91 -28 -61 -27
-360 1 -470 29 -113 73 -190 160 -276 86 -87 163 -131 276 -160 76 -20 118
-20 2104 -20 1970 0 2029 1 2102 19 118 30 193 73 278 160 87 87 132 165 160
277 28 110 29 409 1 470 -22 48 -66 83 -116 91 l-35 6 0 1516 c0 1674 4 1579
-63 1690 -60 101 -166 175 -285 200 -34 7 -208 11 -492 11 l-440 0 0 98 c0
132 -17 179 -90 252 -145 145 -490 255 -960 305 -136 15 -640 28 -740 19z
m555 -174 c393 -26 716 -95 913 -194 82 -41 152 -103 152 -134 0 -12 -16 -39
-35 -61 -82 -91 -322 -178 -630 -230 -239 -40 -330 -46 -705 -46 -394 1 -527
11 -780 61 -320 63 -580 183 -580 269 0 87 238 204 546 269 311 65 746 90
1119 66z m-1480 -670 c152 -60 397 -114 660 -146 168 -21 686 -29 871 -15 397
31 730 106 937 210 l77 39 0 -240 c0 -210 -2 -239 -15 -234 -78 30 -379 48
-503 30 -354 -50 -687 -241 -901 -516 -61 -79 -43 -75 -276 -57 -473 35 -878
143 -1002 267 l-33 33 0 359 0 360 53 -29 c28 -16 88 -44 132 -61z m-355
-1276 l5 -1269 22 -41 c62 -116 257 -224 532 -295 338 -87 837 -126 1262 -100
l196 13 109 -35 c186 -60 350 -80 542 -66 332 25 634 169 870 413 185 193 299
407 357 669 22 98 31 353 16 458 -43 304 -176 568 -395 784 -121 120 -223 193
-358 258 l-87 42 -1 223 0 223 458 -3 c456 -3 457 -3 504 -26 27 -13 64 -42
83 -65 69 -80 65 20 65 -1649 l0 -1508 -2220 0 -2220 0 0 1508 c0 1618 -2
1559 50 1631 32 46 85 83 138 97 26 7 52 11 57 10 7 -2 12 -438 15 -1272z
m2853 723 c672 -178 1054 -876 837 -1532 -60 -182 -149 -324 -290 -466 -155
-156 -335 -260 -547 -316 -120 -31 -344 -42 -475 -23 -464 67 -856 423 -977
885 -127 483 71 1001 489 1285 80 54 229 126 315 152 133 39 202 47 380 44
144 -3 185 -7 268 -29z m-2498 -387 c183 -72 516 -136 829 -159 76 -6 140 -12
142 -14 2 -2 -12 -40 -32 -84 -72 -167 -112 -404 -100 -581 l7 -93 -48 6 c-26
3 -93 10 -148 16 -347 37 -680 138 -789 239 l-46 43 0 357 0 358 53 -28 c28
-16 88 -43 132 -60z m65 -961 c190 -63 453 -111 735 -134 l80 -7 24 -78 c49
-162 156 -354 271 -485 60 -68 199 -195 215 -196 5 0 1 -4 -10 -9 -11 -5 -94
-9 -185 -9 -605 -2 -1168 114 -1337 275 l-43 41 0 355 0 356 63 -34 c35 -18
119 -52 187 -75z m602 -1603 c9 -142 71 -240 190 -303 l53 -28 695 0 695 0 53
28 c118 62 181 163 190 303 l5 84 723 0 724 0 0 -148 c0 -213 -25 -296 -121
-397 -27 -28 -71 -64 -97 -78 -111 -60 21 -57 -2172 -57 -2167 0 -2057 -3
-2162 51 -58 29 -140 110 -171 167 -44 82 -57 151 -57 314 l0 148 724 0 723 0
5 -84z m1706 14 c-6 -81 -32 -127 -89 -159 -36 -21 -50 -21 -679 -21 l-642 0
-40 22 c-56 32 -80 76 -86 159 l-5 69 773 0 773 0 -5 -70z"/>
<path d="M3025 3316 c-250 -49 -455 -205 -560 -429 -110 -233 -97 -498 36
-725 44 -73 188 -217 263 -261 129 -76 313 -119 455 -106 272 25 513 190 627
430 39 81 74 210 74 270 0 24 3 57 6 74 l7 32 62 -61 c54 -51 69 -60 100 -60
47 0 85 36 85 82 0 28 -18 51 -153 185 -138 138 -156 153 -187 153 -31 0 -49
-15 -187 -153 -135 -134 -153 -157 -153 -185 0 -46 38 -82 85 -82 31 0 46 9
102 63 l65 62 -4 -90 c-13 -246 -185 -457 -433 -531 -94 -28 -239 -24 -340 9
-197 65 -344 222 -395 423 -36 141 -18 294 52 427 47 90 164 203 258 249 177
87 367 86 540 -2 30 -16 70 -40 89 -54 45 -34 94 -34 126 -1 59 58 15 126
-131 202 -150 78 -337 108 -489 79z"/>
<path d="M379 667 c-21 -16 -39 -51 -39 -76 0 -29 40 -70 76 -77 44 -8 94 35
94 82 0 65 -81 109 -131 71z"/>
<path d="M705 648 c-21 -25 -25 -38 -21 -62 8 -39 31 -63 66 -71 80 -18 134
82 75 140 -36 37 -86 34 -120 -7z"/>
<path d="M1053 658 c-11 -13 -23 -31 -26 -41 -10 -28 19 -86 48 -97 15 -6 92
-10 171 -10 l146 0 29 29 c37 38 39 82 4 116 -24 25 -27 25 -188 25 -157 0
-164 -1 -184 -22z"/>
</g>
</svg>
