<?xml version="1.0" standalone="no"?>
<!DOCTYPE svg PUBLIC "-//W3C//DTD SVG 20010904//EN"
 "http://www.w3.org/TR/2001/REC-SVG-20010904/DTD/svg10.dtd">
<svg version="1.0" xmlns="http://www.w3.org/2000/svg"
 width="512.000000pt" height="512.000000pt" viewBox="0 0 512.000000 512.000000"
 preserveAspectRatio="xMidYMid meet">
<metadata>
Created by potrace 1.16, written by Peter Selinger 2001-2019
</metadata>
<g transform="translate(0.000000,512.000000) scale(0.100000,-0.100000)"
fill="#000000" stroke="none">
<path d="M3281 4863 c-47 -23 -76 -75 -96 -168 -9 -44 -20 -86 -24 -93 -3 -7
-36 -30 -72 -50 l-66 -36 -90 27 c-106 32 -134 33 -190 7 -30 -13 -52 -34 -76
-72 -119 -187 -116 -255 17 -372 l66 -58 0 -84 0 -84 -1102 0 -1103 0 -50 -24
c-62 -29 -107 -76 -137 -141 l-23 -50 4 -1360 c2 -748 7 -1370 12 -1383 5 -13
9 -28 9 -33 0 -5 -62 -9 -145 -9 l-145 0 -32 -29 -33 -29 0 -169 c0 -193 9
-224 86 -308 57 -62 121 -93 217 -106 50 -6 682 -9 1820 -7 l1744 3 19 24 c24
29 24 72 2 100 l-18 21 -1790 3 c-1912 2 -1819 0 -1874 50 -45 41 -61 93 -61
200 l0 97 939 0 938 0 1 -46 c2 -92 67 -166 161 -184 30 -5 197 -10 371 -10
174 0 341 5 371 10 94 18 159 92 161 184 l1 46 938 0 939 0 0 -97 c0 -107 -16
-159 -61 -200 -49 -45 -67 -47 -437 -53 -335 -5 -354 -6 -368 -24 -30 -42 -12
-98 37 -115 40 -14 586 -15 682 -1 86 13 151 46 206 105 77 84 86 115 86 308
l0 169 -33 29 -32 29 -146 0 -146 0 7 28 c14 50 22 113 21 160 -1 26 -3 489
-4 1029 l-2 982 -22 21 c-40 37 -97 21 -118 -34 -7 -19 -10 -365 -10 -1062 0
-679 -3 -1041 -10 -1054 -5 -10 -22 -28 -36 -39 l-27 -21 -1998 0 -1999 0 -32
29 -33 29 -5 1331 c-3 731 -2 1345 2 1363 3 18 20 45 37 60 l31 28 1021 0
1020 0 -11 -21 c-6 -11 -10 -44 -9 -72 l3 -52 -955 -3 -956 -2 -19 -21 c-18
-20 -19 -47 -16 -843 l3 -821 25 -22 c32 -29 56 -29 91 1 l28 24 2 754 c1 414
3 759 3 766 0 9 129 12 611 12 l610 0 -7 -47 c-4 -27 -10 -57 -14 -69 -9 -23
-121 -94 -148 -94 -9 0 -52 11 -95 25 -153 49 -205 26 -294 -130 -78 -136 -70
-186 48 -300 l79 -76 0 -73 0 -74 -80 -78 c-117 -114 -125 -164 -48 -299 54
-93 91 -130 143 -145 47 -13 95 -6 201 30 l51 18 57 -33 c32 -18 64 -39 71
-46 7 -8 22 -54 34 -104 22 -94 39 -125 85 -159 24 -18 45 -21 154 -24 119 -3
129 -2 162 20 51 35 77 80 95 166 9 42 20 84 24 92 4 8 38 31 75 51 l68 36 91
-29 c163 -52 215 -28 306 146 67 126 53 189 -64 291 l-65 57 0 84 0 83 65 57
c121 107 131 172 49 320 -79 141 -138 165 -286 120 -47 -14 -92 -26 -99 -26
-8 0 -43 17 -79 38 -64 37 -64 38 -77 97 -7 33 -12 63 -13 68 0 4 38 7 85 7
79 0 87 -2 131 -32 39 -28 54 -33 102 -32 32 1 88 12 129 26 l71 25 72 -39
c39 -22 72 -45 74 -51 2 -7 13 -52 25 -102 22 -93 47 -132 103 -161 37 -19
236 -19 282 0 54 23 83 70 108 177 l22 97 69 39 69 40 91 -28 c50 -16 102 -29
117 -29 31 0 100 31 119 53 10 13 31 17 87 17 42 0 75 -4 75 -10 1 -5 2 -17 2
-25 0 -8 -1 -508 -2 -1110 l-1 -1095 -1769 0 -1770 0 -3 221 -3 221 -28 24
c-34 29 -56 30 -91 3 l-26 -20 0 -283 c0 -261 1 -284 18 -299 17 -16 164 -17
1904 -17 1820 0 1885 1 1902 18 15 17 16 114 16 1252 0 1131 -2 1235 -17 1252
-13 15 -32 18 -99 18 l-82 0 1 53 c1 28 -2 62 -6 75 l-8 22 146 0 147 0 34
-34 34 -34 0 -146 c0 -166 11 -211 54 -222 36 -9 73 2 86 25 5 10 10 93 11
184 1 186 -10 229 -74 295 -69 73 -85 76 -352 82 l-240 5 -3 77 -3 77 75 72
c122 117 131 170 50 310 -47 81 -80 118 -121 135 -46 20 -81 17 -170 -11 -43
-14 -87 -25 -98 -24 -11 0 -47 17 -80 37 l-60 37 -25 102 c-27 106 -48 141
-102 169 -41 21 -252 19 -297 -3z m243 -150 c2 -10 12 -53 21 -96 9 -42 27
-91 39 -109 25 -38 192 -134 242 -140 20 -2 70 7 121 23 49 15 93 28 100 28 7
1 31 -31 54 -70 l43 -72 -81 -76 c-93 -87 -103 -110 -103 -236 0 -126 10 -149
102 -236 l81 -76 -42 -71 c-23 -40 -45 -72 -49 -72 -3 0 -51 14 -104 31 -118
38 -137 35 -268 -44 -98 -60 -119 -91 -145 -220 l-17 -78 -86 3 -87 3 -20 90
c-25 105 -34 124 -75 158 -40 34 -168 103 -205 111 -21 5 -63 -3 -129 -24 -54
-16 -102 -28 -106 -25 -14 9 -80 121 -80 136 0 8 30 41 66 73 99 88 104 100
104 235 0 142 -13 173 -105 251 -35 30 -65 61 -65 68 0 20 73 142 85 142 6 0
45 -11 85 -25 112 -38 157 -34 254 21 131 75 143 90 171 219 9 44 19 83 22 88
2 4 42 7 88 7 71 0 84 -3 89 -17z m-1166 -1348 c35 -157 45 -172 170 -244 105
-61 145 -65 266 -25 l80 27 20 -26 c12 -14 32 -47 46 -73 l25 -46 -71 -67
c-98 -92 -104 -106 -104 -247 0 -140 9 -161 106 -244 35 -30 64 -60 64 -67 0
-14 -66 -130 -79 -137 -5 -3 -53 8 -107 24 -115 36 -129 34 -233 -23 -136 -74
-150 -94 -184 -252 l-12 -60 -87 -3 -87 -3 -10 38 c-5 21 -15 64 -21 95 -16
82 -43 114 -140 170 -129 73 -144 76 -262 38 -54 -17 -103 -28 -107 -25 -5 3
-26 35 -47 72 l-37 66 81 77 c47 45 84 89 89 106 10 38 10 220 0 259 -5 18
-40 60 -89 106 l-81 76 38 67 c21 37 43 70 50 72 7 3 48 -7 91 -21 110 -38
149 -35 243 16 129 71 153 98 172 189 6 30 15 72 20 93 l10 38 87 -3 86 -3 14
-60z m584 -2647 c9 -26 -6 -60 -29 -69 -32 -12 -674 -12 -706 0 -23 9 -38 43
-29 69 5 17 759 17 764 0z"/>
<path d="M3313 4356 c-190 -62 -314 -258 -283 -448 21 -134 115 -259 237 -316
52 -24 70 -27 163 -27 97 0 110 2 172 32 93 44 151 100 196 191 35 73 37 80
37 177 0 97 -2 104 -38 177 -43 89 -108 152 -195 194 -47 23 -73 28 -152 31
-61 2 -110 -2 -137 -11z m214 -151 c116 -49 182 -168 159 -289 l-7 -36 -244 0
c-175 0 -246 3 -251 12 -14 22 -9 123 9 170 21 55 97 129 149 145 50 16 144
15 185 -2z"/>
<path d="M2123 3051 c-166 -61 -273 -213 -273 -386 0 -162 87 -297 239 -369
60 -28 75 -31 166 -31 128 0 190 23 275 102 175 161 179 426 9 588 -85 81
-151 108 -269 112 -75 3 -106 -1 -147 -16z m219 -143 c52 -15 121 -78 148
-134 27 -54 30 -151 7 -205 -56 -136 -224 -198 -355 -133 -91 45 -142 127
-142 229 0 177 167 296 342 243z"/>
</g>
</svg>
