<?xml version="1.0" standalone="no"?>
<!DOCTYPE svg PUBLIC "-//W3C//DTD SVG 20010904//EN"
 "http://www.w3.org/TR/2001/REC-SVG-20010904/DTD/svg10.dtd">
<svg version="1.0" xmlns="http://www.w3.org/2000/svg"
 width="512.000000pt" height="512.000000pt" viewBox="0 0 512.000000 512.000000"
 preserveAspectRatio="xMidYMid meet">
<metadata>
Created by potrace 1.16, written by Peter Selinger 2001-2019
</metadata>
<g transform="translate(0.000000,512.000000) scale(0.100000,-0.100000)"
fill="#000000" stroke="none">
<path d="M2360 5114 c-19 -2 -82 -9 -140 -15 -271 -28 -573 -122 -775 -241
-163 -95 -355 -261 -355 -306 0 -36 38 -72 75 -72 28 0 48 12 107 66 235 212
531 341 918 401 142 21 556 25 695 5 561 -79 928 -286 1186 -670 208 -310 329
-754 329 -1207 l0 -122 -65 15 -65 16 0 110 c0 453 -127 828 -387 1149 -91
111 -258 262 -377 342 -781 520 -1819 320 -2354 -453 -203 -293 -302 -623
-302 -1006 l0 -142 -66 -16 c-56 -13 -66 -14 -71 -2 -11 29 18 398 42 537 48
282 143 550 261 735 55 86 40 152 -37 154 -39 1 -59 -20 -120 -123 -123 -211
-219 -507 -263 -810 -17 -114 -39 -427 -34 -497 l2 -43 -91 -44 c-188 -92
-283 -239 -270 -420 6 -92 120 -553 154 -618 114 -229 286 -292 591 -217 68
16 129 30 136 30 6 0 31 -26 54 -59 22 -32 60 -80 82 -106 l42 -48 -47 -23
c-89 -42 -135 -103 -135 -176 0 -36 -7 -52 -42 -93 -104 -125 -171 -258 -211
-415 -17 -70 -21 -116 -21 -265 l-1 -180 31 -65 c39 -83 101 -145 184 -184
l65 -31 1475 0 1475 0 57 27 c32 15 79 47 106 72 97 91 128 205 116 426 -13
249 -96 464 -237 617 -33 36 -39 48 -34 72 14 68 -36 142 -128 188 -27 14 -51
27 -53 28 -2 2 25 39 60 82 35 44 72 93 84 109 l21 29 137 -34 c120 -29 149
-33 234 -29 130 5 199 36 280 123 77 82 99 137 173 435 50 204 60 259 60 330
0 177 -84 305 -254 390 -43 22 -85 40 -92 40 -9 0 -14 53 -18 213 -13 499
-129 908 -351 1242 -275 412 -705 658 -1281 735 -82 11 -492 21 -555 14z m365
-399 c578 -48 1126 -490 1313 -1061 61 -186 82 -344 82 -636 0 -109 -2 -198
-4 -198 -3 0 -39 25 -82 55 -148 107 -342 197 -549 257 -192 55 -487 98 -680
98 -180 0 -335 33 -458 98 -132 68 -278 234 -372 421 -94 188 -185 517 -197
716 l-3 50 95 48 c52 26 142 63 200 81 230 75 394 92 655 71z m-1075 -431 c61
-357 213 -709 388 -896 l44 -47 -38 -46 c-41 -51 -156 -147 -243 -202 -154
-99 -405 -197 -636 -247 -66 -15 -131 -29 -144 -32 l-23 -5 4 273 c4 229 8
290 27 381 59 288 196 555 389 759 86 90 201 193 208 185 2 -2 13 -57 24 -123z
m622 -1083 c165 -89 254 -109 533 -120 319 -13 507 -45 733 -123 202 -69 390
-176 521 -294 l64 -58 -6 -141 c-13 -294 -85 -523 -234 -750 -78 -118 -251
-296 -363 -374 -92 -64 -106 -87 -86 -135 30 -71 91 -57 228 52 l77 61 63 -25
c81 -33 90 -41 86 -78 -3 -28 -29 -49 -308 -243 -168 -117 -323 -222 -346
-233 -52 -26 -125 -26 -178 0 -23 11 -80 59 -129 108 l-87 88 109 17 c130 21
293 67 330 94 52 39 31 133 -30 133 -12 0 -63 -13 -114 -29 -174 -56 -251 -65
-570 -65 -230 0 -311 4 -390 17 -199 35 -417 126 -578 241 -79 57 -207 167
-207 179 0 3 26 -3 58 -13 32 -10 80 -21 107 -25 39 -6 60 -17 93 -47 72 -65
142 -92 242 -93 73 0 94 4 147 29 76 35 144 104 181 184 38 84 37 193 -2 279
-33 73 -112 153 -183 186 -73 33 -208 31 -283 -4 -31 -14 -73 -41 -93 -59
l-37 -32 -72 22 c-153 46 -270 134 -362 274 -62 93 -87 119 -137 140 -33 14
-37 19 -42 68 -4 29 -7 92 -7 140 l0 87 58 11 c253 49 475 118 643 198 153 74
308 180 408 283 47 47 87 87 88 88 1 0 34 -17 75 -38z m-1420 -608 c4 -150 2
-239 -4 -242 -25 -9 -82 -69 -94 -98 -20 -47 -17 -140 6 -190 28 -63 97 -161
158 -225 l54 -57 -41 -10 c-23 -6 -60 -16 -82 -22 -70 -18 -175 -13 -224 11
-52 25 -110 87 -136 144 -34 77 -139 523 -139 590 0 106 64 203 159 244 28 11
299 86 332 91 3 1 9 -106 11 -236z m3578 197 c200 -50 256 -81 305 -171 47
-85 42 -160 -29 -439 -31 -124 -67 -248 -80 -275 -32 -72 -77 -119 -138 -145
-80 -35 -161 -30 -349 20 l-37 10 39 91 c92 213 119 362 126 697 5 227 7 252
22 248 9 -3 72 -19 141 -36z m-3436 -566 c9 -4 37 -38 62 -77 106 -164 260
-284 434 -338 l55 -17 -4 -73 c-1 -41 -4 -75 -4 -76 -5 -5 -153 52 -224 86
-105 51 -184 104 -255 174 -87 86 -168 212 -168 262 0 48 54 78 104 59z m981
-343 c70 -31 125 -113 125 -185 0 -39 -24 -98 -57 -135 -114 -134 -336 -62
-351 114 -13 161 139 272 283 206z m-546 -600 c60 -50 200 -140 278 -180 148
-74 292 -120 467 -149 l108 -17 -96 -93 c-53 -51 -112 -100 -131 -108 -43 -18
-116 -18 -158 0 -19 7 -152 96 -298 196 -371 257 -369 255 -369 289 0 16 6 34
14 40 11 9 122 59 135 61 2 0 24 -17 50 -39z m43 -444 c358 -249 377 -259 483
-265 99 -5 171 19 250 84 l54 43 -44 -87 c-55 -112 -102 -258 -117 -372 l-12
-90 -471 0 c-309 0 -484 4 -510 11 -60 17 -129 92 -145 159 -17 69 -7 300 15
390 33 127 157 349 189 337 7 -3 146 -97 308 -210z m2531 166 c93 -129 141
-257 158 -426 14 -136 6 -255 -21 -307 -24 -47 -79 -94 -129 -109 -26 -7 -185
-11 -508 -11 l-469 0 -16 102 c-19 122 -65 262 -120 373 l-40 79 36 -32 c76
-67 200 -110 284 -98 97 13 143 39 458 257 175 120 321 219 325 219 4 0 23
-21 42 -47z m-1324 -127 l53 -54 -23 -15 c-93 -59 -217 -60 -305 -2 l-27 17
59 54 c58 53 60 53 124 54 l66 0 53 -54z m-170 -265 c49 -7 112 -2 186 14 30
6 31 5 69 -72 21 -43 49 -109 62 -147 22 -63 54 -208 54 -242 0 -12 -54 -14
-320 -14 l-320 0 0 28 c1 81 58 269 119 391 32 62 33 63 64 56 18 -4 56 -11
86 -14z"/>
<path d="M1723 2430 c-34 -14 -43 -42 -43 -139 0 -85 1 -91 26 -110 30 -24 43
-26 77 -10 35 16 47 50 47 135 0 70 -2 78 -29 105 -31 31 -42 33 -78 19z"/>
<path d="M3335 2429 c-38 -22 -45 -41 -45 -130 0 -106 15 -133 75 -133 60 0
75 27 75 134 0 69 -4 92 -17 108 -22 26 -62 35 -88 21z"/>
<path d="M2453 2391 c-54 -25 -114 -85 -144 -147 -21 -42 -24 -63 -24 -154 0
-94 3 -110 27 -156 48 -91 132 -152 223 -161 108 -11 218 55 272 165 25 50 28
68 28 152 0 78 -4 104 -23 145 -66 143 -230 214 -359 156z m172 -153 c61 -48
82 -155 45 -235 -49 -109 -179 -106 -226 4 -18 42 -18 137 1 172 39 76 123
104 180 59z"/>
</g>
</svg>
