<?xml version="1.0" standalone="no"?>
<!DOCTYPE svg PUBLIC "-//W3C//DTD SVG 20010904//EN"
 "http://www.w3.org/TR/2001/REC-SVG-20010904/DTD/svg10.dtd">
<svg version="1.0" xmlns="http://www.w3.org/2000/svg"
 width="512.000000pt" height="512.000000pt" viewBox="0 0 512.000000 512.000000"
 preserveAspectRatio="xMidYMid meet">
<metadata>
Created by potrace 1.16, written by Peter Selinger 2001-2019
</metadata>
<g transform="translate(0.000000,512.000000) scale(0.100000,-0.100000)"
fill="#000000" stroke="none">
<path d="M3125 4919 c-242 -37 -487 -140 -685 -287 -201 -149 -436 -445 -428
-539 4 -46 43 -79 82 -69 27 7 47 31 131 163 63 100 254 292 360 361 236 156
490 234 765 234 487 0 918 -249 1182 -681 44 -72 73 -90 117 -71 32 13 55 58
44 88 -14 40 -107 183 -168 259 -209 260 -508 444 -855 525 -98 23 -441 34
-545 17z"/>
<path d="M3136 4514 c-306 -60 -580 -252 -740 -518 -39 -65 -44 -100 -20 -134
11 -16 25 -22 52 -22 47 0 51 3 97 75 134 212 324 359 561 431 83 26 101 28
264 28 162 0 182 -2 263 -27 231 -71 418 -210 546 -407 30 -47 60 -88 65 -92
6 -4 28 -8 48 -8 41 0 68 27 68 68 0 80 -194 317 -344 421 -136 94 -284 157
-439 186 -98 19 -326 18 -421 -1z"/>
<path d="M3220 4124 c-197 -38 -370 -156 -479 -328 -17 -28 -31 -62 -31 -76 0
-38 34 -70 73 -70 41 0 52 10 102 83 74 111 195 197 325 232 70 19 210 19 280
0 130 -35 251 -121 325 -232 49 -72 61 -83 97 -83 35 0 78 40 78 73 0 51 -109
192 -203 263 -135 101 -235 135 -412 139 -71 2 -141 1 -155 -1z"/>
<path d="M3248 3590 c-53 -28 -96 -85 -108 -144 -5 -28 -32 -388 -60 -801 -27
-412 -53 -780 -56 -817 l-6 -68 -1394 0 c-1381 0 -1394 0 -1414 -20 -20 -20
-20 -33 -20 -648 0 -597 1 -630 18 -645 16 -15 51 -17 279 -17 l261 0 4 -99
c5 -151 -17 -141 318 -141 334 0 310 -11 310 138 l0 102 1180 0 1180 0 0 -103
c0 -88 3 -106 18 -120 16 -15 52 -17 294 -17 333 0 311 -10 316 141 l4 99 262
0 c242 0 264 1 279 18 15 17 17 76 17 645 0 614 0 627 -20 647 -20 20 -33 20
-624 20 l-604 0 -6 68 c-3 37 -29 405 -56 817 -28 413 -55 773 -60 801 -12 60
-56 116 -111 144 -51 27 -150 26 -201 0z m152 -160 c16 -22 25 -133 69 -795
29 -423 54 -794 58 -822 l5 -53 -181 0 -182 0 6 68 c9 103 105 1519 105 1551
0 16 10 40 21 55 27 35 74 33 99 -4z m1390 -2340 l0 -520 -2230 0 -2230 0 0
520 0 520 2230 0 2230 0 0 -520z m-3560 -710 l0 -50 -165 0 -165 0 0 50 0 50
165 0 165 0 0 -50z m2990 0 l0 -50 -165 0 -165 0 0 50 0 50 165 0 165 0 0 -50z"/>
<path d="M926 1357 l-26 -26 0 -241 c0 -227 1 -241 20 -260 30 -30 83 -27 109
6 20 25 21 39 21 259 0 259 -2 269 -67 281 -26 5 -37 1 -57 -19z"/>
<path d="M1246 1357 l-26 -26 0 -241 c0 -227 1 -241 20 -260 30 -30 83 -27
109 6 20 25 21 39 21 259 0 259 -2 269 -67 281 -26 5 -37 1 -57 -19z"/>
<path d="M1566 1357 l-26 -26 0 -241 c0 -227 1 -241 20 -260 30 -30 83 -27
109 6 20 25 21 39 21 259 0 259 -2 269 -67 281 -26 5 -37 1 -57 -19z"/>
<path d="M3686 1278 c-75 -20 -136 -107 -136 -193 1 -65 61 -151 123 -174 45
-17 117 -13 165 10 149 73 129 306 -31 354 -57 17 -66 17 -121 3z"/>
<path d="M4306 1276 c-80 -30 -126 -97 -126 -186 0 -111 79 -190 190 -190 89
0 161 52 185 134 17 58 12 104 -19 159 -40 73 -149 113 -230 83z"/>
</g>
</svg>
