<?xml version="1.0" standalone="no"?>
<!DOCTYPE svg PUBLIC "-//W3C//DTD SVG 20010904//EN"
 "http://www.w3.org/TR/2001/REC-SVG-20010904/DTD/svg10.dtd">
<svg version="1.0" xmlns="http://www.w3.org/2000/svg"
 width="512.000000pt" height="512.000000pt" viewBox="0 0 512.000000 512.000000"
 preserveAspectRatio="xMidYMid meet">
<metadata>
Created by potrace 1.16, written by Peter Selinger 2001-2019
</metadata>
<g transform="translate(0.000000,512.000000) scale(0.100000,-0.100000)"
fill="#000000" stroke="none">
<path d="M655 5095 l-25 -24 0 -569 c0 -561 0 -570 21 -596 19 -24 27 -26 90
-26 l69 0 0 -85 0 -85 -55 0 c-60 0 -109 -19 -119 -45 -10 -28 -7 -1145 4
-1165 13 -24 62 -40 121 -40 l49 0 0 -85 0 -85 -69 0 c-63 0 -71 -2 -90 -26
-21 -26 -21 -36 -21 -504 0 -455 1 -479 19 -501 l19 -24 296 -3 296 -3 0 -113
c0 -155 -7 -150 207 -154 l165 -3 13 -32 14 -32 -115 -116 c-101 -102 -114
-120 -114 -150 0 -32 18 -53 213 -247 178 -177 218 -212 242 -212 23 0 51 23
146 116 l117 116 36 -13 36 -13 0 -163 c0 -161 0 -164 25 -188 l24 -25 296 0
296 0 24 25 c25 24 25 27 25 188 l0 163 36 13 36 13 117 -116 c96 -94 123
-116 147 -116 24 0 63 34 241 213 181 181 213 217 213 242 0 25 -20 50 -116
146 l-116 117 13 35 13 36 169 3 c213 4 207 -1 207 159 l0 109 280 0 c186 0
287 4 304 11 38 18 48 56 44 169 -3 93 -5 103 -27 121 -30 25 -62 24 -94 -1
-22 -18 -26 -30 -29 -83 l-3 -62 -238 -3 -237 -2 0 113 c0 160 4 157 -209 157
l-162 0 -15 36 -15 37 115 117 c142 143 143 149 60 239 l-56 61 381 0 381 0 0
-174 0 -175 26 -20 c30 -24 43 -26 77 -10 42 19 47 47 47 270 0 210 0 210 -25
234 -21 22 -33 25 -90 25 l-65 0 0 84 0 84 66 4 c58 4 70 8 90 32 l24 27 0
564 0 564 -24 27 c-20 24 -32 28 -90 32 l-66 4 0 84 0 84 64 0 c48 0 70 5 87
19 l24 19 0 582 0 582 -24 19 c-23 19 -61 19 -1526 19 -1417 0 -1504 -1 -1524
-17 -11 -10 -24 -32 -27 -50 -5 -26 -1 -37 19 -57 l26 -26 1456 0 1455 0 0
-470 0 -470 -1785 0 -1785 0 0 470 0 470 180 0 c179 0 181 0 205 25 14 13 25
36 25 50 0 14 -11 37 -25 50 l-24 25 -231 0 -231 0 -24 -25z m3505 -1300 l0
-85 -1600 0 -1600 0 0 85 0 85 1600 0 1600 0 0 -85z m190 -710 l0 -465 -1785
0 -1785 0 0 465 0 465 1785 0 1785 0 0 -465z m-2130 -710 l0 -85 -78 0 -78 0
-74 75 c-64 64 -80 75 -108 75 -29 0 -46 -12 -111 -75 l-77 -75 -367 0 -367 0
0 85 0 85 630 0 630 0 0 -85z m540 -69 l0 -155 26 -20 c15 -12 31 -21 36 -21
5 0 47 -16 93 -36 71 -31 87 -34 107 -24 12 7 68 57 123 111 l100 99 135 -135
134 -134 -107 -110 c-119 -122 -123 -131 -83 -209 13 -26 30 -66 37 -90 22
-75 39 -82 210 -82 l149 0 0 -195 0 -195 -153 0 c-107 0 -158 -4 -169 -12 -18
-14 -98 -204 -98 -233 0 -10 49 -68 110 -129 l110 -112 -133 -132 c-73 -73
-137 -132 -142 -132 -6 0 -57 47 -115 105 -116 116 -129 121 -200 85 -21 -11
-64 -29 -95 -41 -30 -11 -60 -29 -65 -39 -6 -10 -10 -86 -10 -169 l0 -151
-195 0 -195 0 0 153 c-1 105 -4 157 -13 168 -15 20 -204 99 -236 99 -15 0 -58
-35 -132 -107 l-110 -107 -134 134 -135 135 104 105 c58 58 108 117 111 131 5
18 -1 42 -18 75 -13 27 -30 67 -37 89 -7 22 -22 50 -33 63 -20 21 -28 22 -174
22 l-153 0 0 195 0 195 149 0 c127 0 152 3 169 18 19 16 86 166 99 220 4 19
-14 43 -106 135 l-111 113 138 137 137 137 100 -101 c55 -55 110 -105 122
-109 28 -11 218 61 246 92 14 17 17 42 17 169 l0 149 195 0 195 0 0 -154z
m1400 69 l0 -85 -362 0 -362 0 -77 75 c-68 66 -81 75 -114 75 -33 0 -46 -9
-114 -75 l-77 -75 -72 0 -72 0 0 85 0 85 625 0 625 0 0 -85z m-2673 -294 c-86
-90 -84 -97 59 -241 l115 -117 -17 -37 -18 -36 -161 0 c-123 0 -166 -3 -181
-14 -16 -12 -20 -30 -24 -133 l-5 -118 -237 -3 -238 -2 0 380 0 380 382 0 381
0 -56 -59z"/>
<path d="M1039 3301 c-24 -19 -24 -21 -24 -216 0 -255 -20 -235 237 -235 254
0 238 -16 238 235 0 251 16 235 -238 235 -172 0 -192 -2 -213 -19z m301 -216
l0 -85 -85 0 -85 0 0 85 0 85 85 0 85 0 0 -85z"/>
<path d="M1977 3309 c-46 -27 -40 -111 10 -130 79 -30 163 4 163 67 0 53 -28
74 -97 74 -32 0 -66 -5 -76 -11z"/>
<path d="M2320 3300 c-30 -30 -27 -83 6 -109 21 -17 41 -21 95 -21 37 0 79 5
93 11 51 23 55 103 7 128 -11 6 -56 11 -100 11 -68 0 -84 -3 -101 -20z"/>
<path d="M2720 3298 c-29 -32 -27 -81 6 -107 22 -17 41 -21 104 -21 89 0 116
14 126 67 5 26 1 37 -19 57 -24 24 -33 26 -111 26 -75 0 -88 -3 -106 -22z"/>
<path d="M3122 3297 c-29 -31 -28 -72 3 -102 22 -22 32 -25 105 -25 73 0 83 3
105 25 30 30 32 64 4 99 -19 25 -25 26 -108 26 -79 0 -90 -2 -109 -23z"/>
<path d="M3521 3294 c-28 -35 -26 -69 4 -99 22 -22 32 -25 105 -25 73 0 83 3
105 25 32 31 33 74 2 103 -20 19 -35 22 -109 22 -82 0 -88 -2 -107 -26z"/>
<path d="M3923 3294 c-20 -20 -24 -31 -19 -57 9 -47 29 -60 93 -65 74 -5 113
20 113 74 0 53 -28 74 -100 74 -52 0 -65 -4 -87 -26z"/>
<path d="M1982 2993 c-21 -8 -43 -61 -36 -88 10 -39 41 -55 106 -55 70 0 98
21 98 74 0 50 -37 76 -104 75 -28 0 -57 -3 -64 -6z"/>
<path d="M2326 2979 c-33 -26 -36 -79 -6 -109 17 -17 33 -20 101 -20 44 0 89
5 100 11 48 25 44 105 -7 128 -14 6 -56 11 -93 11 -54 0 -74 -4 -95 -21z"/>
<path d="M2726 2979 c-34 -27 -36 -77 -3 -107 20 -19 35 -22 106 -22 75 0 84
2 108 26 20 20 24 31 19 57 -10 53 -37 67 -126 67 -63 0 -82 -4 -104 -21z"/>
<path d="M3125 2975 c-32 -31 -33 -74 -2 -103 20 -19 35 -22 109 -22 82 0 88
2 107 26 28 35 26 69 -4 99 -22 22 -32 25 -105 25 -73 0 -83 -3 -105 -25z"/>
<path d="M3525 2975 c-30 -30 -32 -64 -4 -99 19 -25 25 -26 108 -26 79 0 90 2
109 23 29 31 28 72 -3 102 -22 22 -32 25 -105 25 -73 0 -83 -3 -105 -25z"/>
<path d="M3929 2981 c-17 -13 -23 -29 -23 -56 0 -54 29 -75 105 -75 71 0 99
21 99 74 0 50 -37 76 -105 76 -37 0 -60 -6 -76 -19z"/>
<path d="M2465 2039 c-143 -22 -294 -87 -314 -137 -21 -50 13 -102 69 -102 11
0 47 14 80 30 85 43 161 60 263 60 190 0 353 -79 464 -225 60 -79 80 -121 104
-212 52 -203 -6 -409 -155 -558 -82 -81 -162 -127 -272 -155 -98 -25 -180 -25
-278 0 -114 29 -190 73 -276 160 -81 81 -127 160 -155 265 -29 114 -13 290 35
385 40 79 18 140 -52 140 -50 0 -75 -33 -118 -160 -34 -99 -39 -289 -12 -398
66 -259 251 -452 512 -534 108 -33 302 -33 410 0 257 80 446 280 511 542 30
118 23 280 -15 395 -65 193 -200 347 -384 439 -110 56 -294 84 -417 65z"/>
<path d="M2470 1677 c-120 -35 -193 -96 -247 -205 -35 -71 -38 -82 -37 -161 1
-153 71 -269 206 -342 60 -33 67 -34 168 -34 93 0 112 3 162 27 240 112 297
423 112 613 -88 91 -247 136 -364 102z m191 -162 c55 -28 119 -98 119 -130 0
-3 -97 -5 -215 -5 -118 0 -215 3 -215 8 0 35 84 117 142 139 42 16 126 10 169
-12z m96 -327 c-14 -25 -45 -56 -73 -73 -41 -26 -57 -30 -118 -30 -87 0 -137
23 -183 84 -18 23 -33 47 -33 52 0 5 91 9 216 9 l216 0 -25 -42z"/>
<path d="M1060 4727 c-44 -22 -50 -49 -50 -235 l0 -174 30 -29 30 -30 190 3
c166 3 192 5 207 21 16 15 18 41 21 206 3 188 3 189 -22 217 l-24 29 -179 3
c-130 2 -185 -1 -203 -11z m278 -229 l-3 -83 -82 -3 -83 -3 0 86 0 85 85 0 86
0 -3 -82z"/>
<path d="M1969 4711 l-29 -29 0 -176 c0 -187 6 -216 47 -235 17 -8 319 -11
1047 -11 1020 0 1023 0 1050 21 l26 20 0 198 c0 188 -1 199 -21 217 -20 18
-54 19 -1056 22 l-1034 2 -30 -29z m1991 -216 l0 -85 -932 2 -933 3 -3 83 -3
82 936 0 935 0 0 -85z"/>
</g>
</svg>
